<svg width="20" height="6" viewBox="0 0 20 6" fill="none" xmlns="http://www.w3.org/2000/svg">
<path d="M12.2 3.00105C12.2 2.71201 12.143 2.4258 12.0324 2.15876C11.9218 1.89172 11.7597 1.64909 11.5553 1.44471C11.3509 1.24033 11.1083 1.0782 10.8412 0.96759C10.5742 0.856979 10.288 0.800049 9.99895 0.800049C9.70991 0.800049 9.4237 0.856979 9.15666 0.96759C8.88963 1.0782 8.64699 1.24032 8.44261 1.44471C8.23823 1.64909 8.0761 1.89172 7.96549 2.15876C7.85488 2.4258 7.79795 2.71201 7.79795 3.00105C7.79808 3.58479 8.0301 4.14457 8.44296 4.55724C8.85582 4.96992 9.41571 5.20168 9.99945 5.20155C10.5832 5.20142 11.143 4.9694 11.5556 4.55654C11.9683 4.14368 12.2001 3.58379 12.2 3.00005L12.2 3.00105ZM14.8 3.00105C14.8001 3.28996 14.8571 3.57601 14.9678 3.84288C15.0785 4.10974 15.2406 4.35219 15.445 4.55639C15.6494 4.76059 15.892 4.92253 16.159 5.03297C16.4259 5.14341 16.712 5.20018 17.001 5.20005C17.2899 5.19992 17.5759 5.14288 17.8428 5.0322C18.1096 4.92152 18.3521 4.75936 18.5563 4.55498C18.7605 4.35059 18.9224 4.108 19.0329 3.84103C19.1433 3.57406 19.2001 3.28796 19.2 2.99905C19.1997 2.41557 18.9676 1.8561 18.5549 1.44371C18.1421 1.03131 17.5824 0.799784 16.999 0.800049C16.4155 0.800314 15.856 1.03235 15.4436 1.44512C15.0312 1.85789 14.7997 2.41757 14.8 3.00105ZM5.19995 3.00105C5.19995 2.41731 4.96806 1.85747 4.55529 1.44471C4.14253 1.03194 3.58269 0.800048 2.99895 0.800048C2.41521 0.800048 1.85538 1.03194 1.44261 1.44471C1.02984 1.85747 0.797951 2.41731 0.797951 3.00105C0.797951 3.58479 1.02984 4.14462 1.44261 4.55739C1.85538 4.97016 2.41521 5.20205 2.99895 5.20205C3.58269 5.20205 4.14253 4.97016 4.55529 4.55739C4.96806 4.14462 5.19995 3.58479 5.19995 3.00105Z" fill="black"/>
</svg>
